<svg width="64" height="64" viewBox="0 0 64 64" fill="none" xmlns="http://www.w3.org/2000/svg">
<path fill-rule="evenodd" clip-rule="evenodd" d="M16.6667 21.3333C16.6667 17.2667 18.2822 13.3666 21.1577 10.491C24.0333 7.61547 27.9334 6 32 6C36.0667 6 39.9668 7.61547 42.8423 10.491C45.7179 13.3666 47.3334 17.2667 47.3334 21.3333V29.3333C47.3334 33.4 45.7179 37.3001 42.8423 40.1756C39.9668 43.0512 36.0667 44.6667 32 44.6667C27.9334 44.6667 24.0333 43.0512 21.1577 40.1756C18.2822 37.3001 16.6667 33.4 16.6667 29.3333V21.3333ZM32 10C28.9942 10 26.1116 11.194 23.9861 13.3195C21.8607 15.4449 20.6667 18.3275 20.6667 21.3333V29.3333C20.6641 32.1671 21.7232 34.8991 23.6352 36.9907C25.5473 39.0822 28.1735 40.3816 30.9962 40.6326C33.8188 40.8836 36.6331 40.068 38.8842 38.3467C41.1353 36.6254 42.6599 34.1231 43.1574 31.3333H34.6667C34.1363 31.3333 33.6275 31.1226 33.2525 30.7475C32.8774 30.3725 32.6667 29.8638 32.6667 29.3333C32.6667 28.8029 32.8774 28.2942 33.2525 27.9191C33.6275 27.544 34.1363 27.3333 34.6667 27.3333H43.3334V23.3333H34.6667C34.1363 23.3333 33.6275 23.1226 33.2525 22.7475C32.8774 22.3725 32.6667 21.8638 32.6667 21.3333C32.6667 20.8029 32.8774 20.2942 33.2525 19.9191C33.6275 19.544 34.1363 19.3333 34.6667 19.3333H43.1574C42.6876 16.7161 41.3127 14.3472 39.2731 12.6411C37.2336 10.9349 34.6591 10.0001 32 10ZM10.6667 24.6667C11.1971 24.6667 11.7058 24.8774 12.0809 25.2525C12.456 25.6275 12.6667 26.1362 12.6667 26.6667V29.3333C12.6667 31.8722 13.1668 34.3863 14.1383 36.7319C15.1099 39.0775 16.534 41.2088 18.3293 43.0041C20.1246 44.7993 22.2558 46.2234 24.6015 47.195C26.9471 48.1666 29.4611 48.6667 32 48.6667C34.5389 48.6667 37.0529 48.1666 39.3986 47.195C41.7442 46.2234 43.8755 44.7993 45.6708 43.0041C47.466 41.2088 48.8901 39.0775 49.8617 36.7319C50.8333 34.3863 51.3334 31.8722 51.3334 29.3333V26.6667C51.3334 26.1362 51.5441 25.6275 51.9191 25.2525C52.2942 24.8774 52.8029 24.6667 53.3334 24.6667C53.8638 24.6667 54.3725 24.8774 54.7476 25.2525C55.1226 25.6275 55.3334 26.1362 55.3334 26.6667V29.3333C55.3335 35.1756 53.142 40.8053 49.1919 45.1099C45.2419 49.4144 39.8208 52.0806 34 52.5813V58.6667C34 59.1971 33.7893 59.7058 33.4142 60.0809C33.0392 60.456 32.5305 60.6667 32 60.6667C31.4696 60.6667 30.9609 60.456 30.5858 60.0809C30.2107 59.7058 30 59.1971 30 58.6667V52.5813C24.1793 52.0806 18.7581 49.4144 14.8081 45.1099C10.8581 40.8053 8.66655 35.1756 8.66669 29.3333V26.6667C8.66669 26.1362 8.8774 25.6275 9.25247 25.2525C9.62755 24.8774 10.1363 24.6667 10.6667 24.6667Z" fill="white"/>
</svg>
